D:\school\WTK\thesis\model\3dpredictsim\Results\batch_windlass\Pog_s1_tmt_bCst_d00_k800_WL20_ig24_act_TTC_GRF.mot
nRows=15
nColumns=19

name D:\school\WTK\thesis\model\3dpredictsim\Results\batch_windlass\Pog_s1_tmt_bCst_d00_k800_WL20_ig24_act_TTC_GRF.mot
datacolumns 19
datarows 15
range 0.0000000000 0.1846411723
endheader
time 	ground_force_vx	ground_force_vy	ground_force_vz	ground_force_px	ground_force_py	ground_force_pz	1_ground_force_vx	1_ground_force_vy	1_ground_force_vz	1_ground_force_px	1_ground_force_py	1_ground_force_pz	ground_torque_x	ground_torque_y	ground_torque_z	1_ground_torque_x	1_ground_torque_y	1_ground_torque_z
        0.0000000000	      -96.3252633990	       82.7195914943	       22.5075237100	        0.1979001774	        0.0000000000	        0.0536094866	       61.5764039924	      276.0028247383	      -10.3025376091	       -0.3877801063	        0.0000000000	       -0.0232589789	        0.0000000000	        0.0000000000	        0.0000000000	        0.0000000000	        0.0000000000	        0.0000000000	
        0.0131886552	     -110.8640023102	      257.5153828853	       23.9580426916	        0.2052026503	        0.0000000000	        0.0519486663	       45.3744998794	      221.7598605936	      -16.9895043829	       -0.3824756422	        0.0000000000	       -0.0209339022	        0.0000000000	        0.0000000000	        0.0000000000	        0.0000000000	        0.0000000000	        0.0000000000	
        0.0263773103	      -89.0243221389	      534.1079796222	       -7.9402635230	        0.2095386634	        0.0000000000	        0.0514284674	       42.9843149767	      176.7130718979	      -13.4795384094	       -0.3821714573	        0.0000000000	       -0.0207720325	        0.0000000000	        0.0000000000	        0.0000000000	        0.0000000000	        0.0000000000	        0.0000000000	
        0.0395659655	     -130.0767082355	      795.2973924478	      -23.2599426413	        0.2196434005	        0.0000000000	        0.0531123437	       29.0672621222	      113.0170097576	      -13.3244802777	       -0.3821199888	        0.0000000000	       -0.0210464011	        0.0000000000	        0.0000000000	        0.0000000000	        0.0000000000	        0.0000000000	        0.0000000000	
        0.0527546207	     -168.8937589154	      928.9654284274	      -28.2179440319	        0.2284745094	        0.0000000000	        0.0547228157	        3.6019676684	       38.7543400608	       -7.2014433655	       -0.3835114904	        0.0000000000	       -0.0213209447	        0.0000000000	        0.0000000000	        0.0000000000	        0.0000000000	        0.0000000000	        0.0000000000	
        0.0659432758	     -169.5750448932	      930.1239822291	      -27.5687220142	        0.2349341144	        0.0000000000	        0.0557057205	        0.8208642672	       -0.7900270698	       -0.0751887332	        0.0000000000	        0.0000000000	        0.0000000000	        0.0000000000	        0.0000000000	        0.0000000000	        0.0000000000	        0.0000000000	        0.0000000000	
        0.0791319310	     -159.1845536648	      880.7631844936	      -23.0824878371	        0.2404335811	        0.0000000000	        0.0563139843	       -3.5554135430	        2.7394758801	        0.5000944864	        0.0000000000	        0.0000000000	        0.0000000000	        0.0000000000	        0.0000000000	        0.0000000000	        0.0000000000	        0.0000000000	        0.0000000000	
        0.0923205861	     -145.9159040794	      835.1844686566	      -17.9963174220	        0.2454875375	        0.0000000000	        0.0562161344	       -2.4185229093	        1.6275004037	        0.3223495880	        0.0000000000	        0.0000000000	        0.0000000000	        0.0000000000	        0.0000000000	        0.0000000000	        0.0000000000	        0.0000000000	        0.0000000000	
        0.1055092413	     -126.4307247958	      793.9356247326	      -16.7951910137	        0.2510606137	        0.0000000000	        0.0556859776	       -0.4001598608	        0.2458410384	        0.0463988259	        0.0000000000	        0.0000000000	        0.0000000000	        0.0000000000	        0.0000000000	        0.0000000000	        0.0000000000	        0.0000000000	        0.0000000000	
        0.1186978965	     -109.1165744584	      747.0158770220	      -16.1000608606	        0.2571557904	        0.0000000000	        0.0549889306	       -0.1559843518	        0.0896861313	        0.0152315044	        0.0000000000	        0.0000000000	        0.0000000000	        0.0000000000	        0.0000000000	        0.0000000000	        0.0000000000	        0.0000000000	        0.0000000000	
        0.1318865516	      -93.9753280206	      700.8140272001	      -16.2651311068	        0.2625473741	        0.0000000000	        0.0544136534	       -0.2051521692	        0.1136552207	        0.0172078611	        0.0000000000	        0.0000000000	        0.0000000000	        0.0000000000	        0.0000000000	        0.0000000000	        0.0000000000	        0.0000000000	        0.0000000000	
        0.1450752068	      -81.0956813929	      664.4073267409	      -16.3592535082	        0.2673696168	        0.0000000000	        0.0540187333	       -0.1016305032	        0.0549111503	        0.0070658552	        0.0000000000	        0.0000000000	        0.0000000000	        0.0000000000	        0.0000000000	        0.0000000000	        0.0000000000	        0.0000000000	        0.0000000000	
        0.1582638620	      -69.9205245430	      637.8295876565	      -16.8035620181	        0.2718827227	        0.0000000000	        0.0537242913	       -0.0502471684	        0.0259630668	        0.0034468487	        0.0000000000	        0.0000000000	        0.0000000000	        0.0000000000	        0.0000000000	        0.0000000000	        0.0000000000	        0.0000000000	        0.0000000000	
        0.1714525171	      -59.9070186927	      618.2044989486	      -17.2776212175	        0.2763475247	        0.0000000000	        0.0534843364	       -0.0300695015	        0.0147758383	        0.0021217758	        0.0000000000	        0.0000000000	        0.0000000000	        0.0000000000	        0.0000000000	        0.0000000000	        0.0000000000	        0.0000000000	        0.0000000000	
        0.1846411723	      -51.1908777080	      602.8437410562	      -17.7144526033	        0.2809061861	        0.0000000000	        0.0532517281	       -0.0240403852	        0.0112782760	        0.0017613969	        0.0000000000	        0.0000000000	        0.0000000000	        0.0000000000	        0.0000000000	        0.0000000000	        0.0000000000	        0.0000000000	        0.0000000000	
